<svg width="110" height="43" viewBox="0 0 110 43" fill="none" xmlns="http://www.w3.org/2000/svg">
<path d="M8.83984 21.3396C8.83984 15.3334 12.7207 10.894 18.4988 10.894C23.0696 10.894 26.7779 13.6795 26.7779 16.465C26.7779 17.6401 26.0017 18.4235 24.7081 18.4235C21.5603 18.4235 21.6897 12.6785 17.5502 12.6785C15.2217 12.6785 13.1088 14.9852 13.1088 18.6847C13.1088 24.5168 16.5153 28.3469 20.0511 28.3469C22.9833 28.3469 24.665 26.2142 25.5705 24.6474C26.0449 24.0381 27.0798 24.2121 26.9504 25.1261C26.6485 28.8256 23.9751 32.3075 18.7575 32.3075C13.2381 32.3075 8.83984 26.9976 8.83984 21.3396Z" fill="#133A23"/>
<path d="M28.373 31.5246V31.394C28.373 30.6541 29.4942 30.4365 29.4942 29.1743V14.7246C29.4942 13.4189 28.373 13.1142 28.373 12.5049V12.3743C28.373 12.0696 28.5886 11.9391 28.9336 11.765L32.5988 9.93702C33.375 9.54531 33.8062 9.98054 33.8062 10.4593V29.1308C33.8062 30.3494 35.0567 30.6106 35.0567 31.3505V31.481C35.0567 31.7857 34.7549 32.0033 34.3668 32.0033H29.063C28.6318 32.0033 28.373 31.8292 28.373 31.5246Z" fill="#133A23"/>
<path d="M49.5024 27.8682C49.3299 29.5656 47.3463 32.3076 43.5949 32.3076C39.5416 32.3076 36.5663 29.348 36.5663 24.8216C36.48 20.948 39.4984 17.6838 43.3793 17.5967C43.4655 17.5967 43.5518 17.5967 43.5949 17.5967C47.3895 17.5967 49.1143 19.8164 49.1143 21.7749C49.1574 22.6454 48.64 23.4288 47.8207 23.7335L41.3526 26.6931C41.9994 28.2599 43.5086 29.261 45.1903 29.261C46.5271 29.3045 47.7775 28.6516 48.5106 27.5635C48.8556 27.1283 49.5024 27.2589 49.5024 27.8682ZM40.5764 22.8195C40.5764 23.69 40.6627 24.5169 40.8783 25.3439L44.6298 23.4288C45.1472 23.1677 45.449 22.6019 45.4059 22.0361C45.4059 20.9915 44.6298 18.9024 43.0774 18.9024C41.5251 18.9024 40.5764 20.5998 40.5764 22.8195Z" fill="#133A23"/>
<path d="M62.5245 20.2955C62.5245 21.5142 62.0502 22.6023 60.6703 22.6023C58.3849 22.6023 59.4198 20.0779 57.8244 20.0779C56.7032 20.0779 56.272 21.6883 56.272 23.2986V29.1743C56.272 30.3929 57.7381 30.6541 57.7381 31.394V31.5245C57.7381 31.8727 57.4794 32.0468 57.0913 32.0468H51.7444C51.3132 32.0468 51.0545 31.8727 51.0545 31.5245V31.394C51.0545 30.6541 52.1756 30.4365 52.1756 29.1743V22.3411C52.1756 21.0354 50.8389 20.9484 50.8389 20.2085V20.0779C50.8389 19.7733 51.0545 19.5556 51.4426 19.3815L54.9353 17.7277C55.5821 17.423 55.8839 17.7712 55.8839 18.337V20.5567C56.5308 18.6852 57.9106 17.6406 59.851 17.6406C61.2309 17.5536 62.4382 18.6416 62.5245 20.0344C62.5245 20.1214 62.5245 20.2085 62.5245 20.2955Z" fill="#133A23"/>
<path d="M79.6004 31.4373V31.5244C79.6004 31.8726 79.3848 32.0467 78.9967 32.0467H73.5636C73.2617 32.0902 73.003 31.8726 73.003 31.5679V31.5244V31.4809C73.003 30.741 74.081 30.5669 73.6067 29.8705L70.4589 25.3876L68.7341 26.998V29.2176C68.7341 30.4363 69.9846 30.6974 69.9846 31.4373V31.5679C69.9846 31.8726 69.7258 32.0902 69.2946 32.0902H63.9477C63.5596 32.0902 63.3009 31.8726 63.3009 31.5679V31.4373C63.3009 30.6974 64.422 30.4798 64.422 29.2176V14.7244C64.422 13.4187 63.1284 13.114 63.1284 12.5047V12.3741C63.1284 12.0695 63.344 11.9389 63.7321 11.7648L67.6129 9.9368C68.3029 9.58861 68.7772 9.98032 68.7772 10.4591V24.7347L73.3911 20.7306C74.2535 19.9907 72.7011 19.2508 72.7011 18.5544V18.4239C72.7011 18.1192 72.9167 17.9016 73.3048 17.9016H77.4444C77.7893 17.9016 78.0481 18.0757 78.0481 18.3803V18.5109C78.0481 19.2508 76.6251 19.7296 75.5471 20.6871L73.1755 22.9068L78.0481 29.827C78.5224 30.4798 79.6004 30.741 79.6004 31.4373Z" fill="#133A23"/>
<path d="M79.6001 28.8692C79.6001 27.7376 80.3763 27.2589 81.3249 27.2589C83.869 27.2589 82.8772 31.1325 85.8094 31.1325C87.0168 31.1325 87.9223 30.5231 87.9223 29.1739C87.9223 25.2568 79.8157 27.6941 79.8157 21.9055C79.8157 19.4247 82.2304 17.5967 85.7232 17.5967C89.3884 17.5967 91.7169 19.2941 91.7169 21.1221C91.6738 21.9926 90.9407 22.6889 90.1215 22.6454C87.7067 22.6454 88.5691 18.8154 86.025 18.8154C84.9901 18.7718 84.1277 19.5988 84.1277 20.6433C84.1277 20.6869 84.1277 20.7304 84.1277 20.7739C84.1277 24.7781 92.0619 22.4278 92.0619 28.0423C92.0619 30.4361 89.7334 32.2641 85.8525 32.2641C82.058 32.2641 79.6001 30.6972 79.6001 28.8692Z" fill="#133A23"/>
<path d="M108.534 18.3803V18.5109C108.534 19.2508 107.629 19.5119 107.068 20.8176L101.549 32.9171C100.6 35.0062 98.1853 40.1855 95.1668 40.1855C92.5365 40.1855 90.8979 38.5751 90.8979 37.0518C90.8548 36.1378 91.5447 35.3544 92.4502 35.3109C92.5365 35.3109 92.5796 35.3109 92.6658 35.3109C95.0375 35.3109 94.3044 38.8363 95.8136 38.8363C96.8485 38.8363 98.9183 34.8757 99.7376 32.8736L93.9163 20.8176C93.2695 19.5119 92.364 19.2508 92.364 18.5109V18.3803C92.364 18.0757 92.6227 17.9016 92.9677 17.9016H98.4009C98.6596 17.858 98.9183 18.0757 98.9614 18.3803V18.4238V18.5544C98.9614 19.2943 97.8834 19.3814 98.5302 20.9047L101.937 28.8694L105.085 21.3399C105.861 19.5119 103.791 19.2943 103.791 18.5979V18.4674C103.791 18.1627 104.007 17.9451 104.395 17.9451H107.93C108.275 17.9016 108.534 18.1192 108.534 18.3803Z" fill="#133A23"/>
<path d="M4.57099 19.3815C4.61411 19.425 4.57099 19.512 4.52787 19.5555C4.48475 19.5991 4.39851 19.5555 4.35539 19.512C3.49298 18.2934 1.81129 15.2903 1.94065 10.2851C1.94065 8.80531 2.24249 7.32551 2.80306 5.93277C3.27738 4.80116 4.57099 2.92966 6.03708 3.53899C7.50317 4.14831 5.47652 6.41152 5.04531 7.06437C2.54433 10.8509 3.14802 15.3338 4.57099 19.3815Z" fill="#FDBC4E"/>
<path d="M5.38989 17.0746C5.38989 17.1181 5.34677 17.1181 5.30365 17.1181C5.26053 17.1181 5.26053 17.0746 5.26053 17.0746C5.08805 15.2901 5.00181 11.373 6.64038 7.93468C7.41655 6.23727 8.62392 4.75747 10.1331 3.66939C10.6937 3.27768 11.3405 3.06006 12.0304 3.06006C12.8497 3.14711 13.4965 3.88701 13.1084 4.71395C12.5047 5.97613 10.8662 6.15022 9.83129 6.93364C8.49456 7.93468 7.54591 9.45799 6.8991 10.9813C6.12294 12.8964 5.60549 14.9855 5.38989 17.0746Z" fill="#FDBC4E"/>
<path d="M7.02881 16.1607C7.02881 15.8125 7.07193 15.4643 7.15817 15.1597C7.50313 13.941 7.97746 12.7659 8.62426 11.6778C10.3491 8.76172 12.8501 6.19385 16.1703 5.41043C17.1621 5.14929 20.3961 5.14929 19.3612 7.06431C18.6713 8.28297 16.6878 7.76069 15.5666 7.9783C13.4106 8.41354 11.6858 9.76276 10.1766 11.2861C8.53802 12.9835 7.11505 16.2042 7.02881 16.1607Z" fill="#FDBC4E"/>
</svg>
